<svg xmlns="http://www.w3.org/2000/svg" viewBox="0 0 520 380" width="520" height="380" role="img" aria-label="Mockup de embalagem e sacola personalizada">
  <defs>
    <filter id="es" x="-40%" y="-40%" width="180%" height="180%">
      <feDropShadow dx="0" dy="18" stdDeviation="18" flood-color="#0A2E3D" flood-opacity=".30"/>
    </filter>
  </defs>
  <g filter="url(#es)">
    <g transform="rotate(-4 190 210)">
      <path d="M96 138h196l-14 196a14 14 0 0 1-14 12H124a14 14 0 0 1-14-12z" fill="#F0E2CE"/>
      <path d="M96 138h196l-14 196a14 14 0 0 1-14 12H124a14 14 0 0 1-14-12z" fill="#EFE0C9" opacity=".7"/>
      <path d="M138 138c0-34 24-56 56-56s56 22 56 56" fill="none" stroke="#C9B48F" stroke-width="11" stroke-linecap="round"/>
      <rect x="122" y="196" width="144" height="94" rx="8" fill="#0A5781"/>
      <rect x="144" y="220" width="72" height="14" rx="7" fill="#FBFCFC"/>
      <rect x="144" y="246" width="100" height="9" rx="4.5" fill="#7FB4CB"/>
      <circle cx="238" cy="252" r="16" fill="#EEAF5A"/>
    </g>
    <g transform="rotate(6 370 226)">
      <path d="M296 158h156a12 12 0 0 1 12 12v146a12 12 0 0 1-12 12H296a12 12 0 0 1-12-12V170a12 12 0 0 1 12-12z" fill="#08ABAC"/>
      <path d="M284 190h180v18H284z" fill="#069092"/>
      <rect x="316" y="232" width="120" height="46" rx="8" fill="#FBFCFC"/>
      <rect x="336" y="248" width="80" height="14" rx="7" fill="#F06B52"/>
      <path d="M330 158c0-20 14-34 34-34h20c20 0 34 14 34 34" fill="none" stroke="#FBFCFC" stroke-width="9" stroke-linecap="round"/>
    </g>
    <g transform="rotate(-14 400 92)">
      <rect x="336" y="56" width="128" height="72" rx="12" fill="#FBFCFC"/>
      <circle cx="356" cy="92" r="9" fill="#143B4A"/>
      <rect x="376" y="76" width="66" height="12" rx="6" fill="#143B4A"/>
      <rect x="376" y="98" width="46" height="12" rx="6" fill="#08ABAC"/>
    </g>
  </g>
</svg>
